HIERARCHY
ROOT Hips
{
	OFFSET 0.000000 0.000000 0.000000
	CHANNELS 6 Xposition Yposition Zposition Xrotation Yrotation Zrotation
	JOINT LeftUpLeg_virtual
	{
		OFFSET 0.000000 0.000000 0.000000
		CHANNELS 3 Xrotation Yrotation Zrotation
		JOINT LeftUpLeg
		{
			OFFSET 10.205400 -3.823500 0.155100
			CHANNELS 3 Xrotation Yrotation Zrotation
			JOINT LeftLeg
			{
				OFFSET 0.708757 -12.982077 0.567790
				CHANNELS 3 Xrotation Yrotation Zrotation
				JOINT LeftFoot
				{
					OFFSET -0.708756 -10.717838 -2.184338
					CHANNELS 3 Xrotation Yrotation Zrotation
					JOINT LeftToeBase
					{
						OFFSET 0.108149 -7.191104 7.560241
						CHANNELS 3 Xrotation Yrotation Zrotation
						JOINT LeftToe_End
						{
							OFFSET 0.070230 0.081724 4.490308
							CHANNELS 3 Xrotation Yrotation Zrotation
							End Site
							{
								OFFSET 0 0 0
							}
						}
					}
				}
			}
		}
	}
	JOINT RightUpLeg_virtual
	{
		OFFSET 0.000000 0.000000 0.000000
		CHANNELS 3 Xrotation Yrotation Zrotation
		JOINT RightUpLeg
		{
			OFFSET -10.205400 -3.823500 0.005500
			CHANNELS 3 Xrotation Yrotation Zrotation
			JOINT RightLeg
			{
				OFFSET -0.708756 -12.982134 0.610632
				CHANNELS 3 Xrotation Yrotation Zrotation
				JOINT RightFoot
				{
					OFFSET 0.708754 -10.717769 -1.945823
					CHANNELS 3 Xrotation Yrotation Zrotation
					JOINT RightToeBase
					{
						OFFSET -0.108140 -7.191069 7.372968
						CHANNELS 3 Xrotation Yrotation Zrotation
						JOINT RightToe_End
						{
							OFFSET -0.070227 0.081735 4.479403
							CHANNELS 3 Xrotation Yrotation Zrotation
							End Site
							{
								OFFSET 0 0 0
							}
						}
					}
				}
			}
		}
	}
	JOINT Spine_virtual
	{
		OFFSET 0.000000 0.000000 0.000000
		CHANNELS 3 Xrotation Yrotation Zrotation
		JOINT Spine
		{
			OFFSET 0.000000 6.876099 0.125700
			CHANNELS 3 Xrotation Yrotation Zrotation
			JOINT Spine1
			{
				OFFSET 0.000000 5.730043 0.104720
				CHANNELS 3 Xrotation Yrotation Zrotation
				JOINT Spine1_split
				{
					OFFSET 0.000000 5.730043 0.104720
					CHANNELS 3 Xrotation Yrotation Zrotation
					JOINT Spine2
					{
						OFFSET 0.000000 5.730043 0.104720
						CHANNELS 3 Xrotation Yrotation Zrotation
						JOINT Neck_virtual
						{
							OFFSET 0.000000 0.000000 0.000000
							CHANNELS 3 Xrotation Yrotation Zrotation
							JOINT Neck
							{
								OFFSET 0.000000 10.314075 0.188496
								CHANNELS 3 Xrotation Yrotation Zrotation
								JOINT Head
								{
									OFFSET 0.000000 7.643700 -2.377400
									CHANNELS 3 Xrotation Yrotation Zrotation
									JOINT HeadTop_End
									{
										OFFSET 0.000000 43.788605 -13.619600
										CHANNELS 3 Xrotation Yrotation Zrotation
										End Site
										{
											OFFSET 0 0 0
										}
									}
								}
							}
						}
						JOINT LeftShoulder_virtual
						{
							OFFSET 0.000000 0.000000 0.000000
							CHANNELS 3 Xrotation Yrotation Zrotation
							JOINT LeftShoulder
							{
								OFFSET 2.196100 4.412489 0.087492
								CHANNELS 3 Xrotation Yrotation Zrotation
								JOINT LeftShoulder_split
								{
									OFFSET 2.196100 4.412489 0.087492
									CHANNELS 3 Xrotation Yrotation Zrotation
									JOINT LeftArm
									{
										OFFSET 8.771219 -2.981674 -0.026999
										CHANNELS 3 Xrotation Yrotation Zrotation
										JOINT LeftForeArm
										{
											OFFSET 8.512804 0.000000 -0.000000
											CHANNELS 3 Xrotation Yrotation Zrotation
											JOINT LeftHand
											{
												OFFSET 18.484802 0.000000 -0.000000
												CHANNELS 3 Xrotation Yrotation Zrotation
												End Site
												{
													OFFSET 0 0 0
												}
											}
										}
									}
								}
							}
						}
						JOINT RightShoulder_virtual
						{
							OFFSET 0.000000 0.000000 0.000000
							CHANNELS 3 Xrotation Yrotation Zrotation
							JOINT RightShoulder
							{
								OFFSET -2.196100 4.412496 0.070690
								CHANNELS 3 Xrotation Yrotation Zrotation
								JOINT RightShoulder_split
								{
									OFFSET -2.196100 4.412496 0.070690
									CHANNELS 3 Xrotation Yrotation Zrotation
									JOINT RightArm
									{
										OFFSET -8.771282 -2.981682 -0.094208
										CHANNELS 3 Xrotation Yrotation Zrotation
										JOINT RightForeArm
										{
											OFFSET -8.494598 0.000000 0.000000
											CHANNELS 3 Xrotation Yrotation Zrotation
											JOINT RightHand
											{
												OFFSET -18.483803 0.000000 0.000001
												CHANNELS 3 Xrotation Yrotation Zrotation
												End Site
												{
													OFFSET 0 0 0
												}
											}
										}
									}
								}
							}
						}
					}
				}
			}
		}
	}
}
MOTION
Frames: 11
Frame Time: 0.03333333
-1.229848 25.576981 2.670864 0.000000 0.000000 0.000000 9.106637 55.507711 -1.866842 -81.749448 -6.621089 -35.548396 56.309849 -7.093274 1.863116 20.459838 -25.423863 0.051788 -6.881423 4.357414 3.766603 0.000000 0.000000 0.000000 10.971459 54.110220 -3.267864 44.629429 -30.262690 11.158466 32.606066 31.201913 -0.741536 -53.616620 -15.964795 -7.083448 -26.643446 8.411270 -14.638854 0.000000 0.000000 0.000000 16.203483 60.369187 -9.080219 8.934238 15.384103 -5.280100 6.033726 11.107532 0.803829 0.453561 0.111655 0.008487 0.000000 0.000000 0.000000 5.231901 13.353553 -0.325140 15.941412 -22.480116 24.313858 149.624487 -76.502866 -169.946636 0.000000 0.000000 0.000000 5.637840 11.581182 -1.114687 1.126866 -4.934141 7.809216 -3.387894 -2.291868 -2.505261 -40.686235 6.888373 -34.412224 66.569564 -14.066886 33.180851 0.000000 0.000000 0.000000 8.387730 12.664519 -1.512313 -4.082470 -9.717691 -19.308472 -4.327993 2.817463 6.257191 -33.207591 2.655769 1.206536 -19.247777 19.458272 0.968849 0.000000 0.000000 0.000000 
-1.083984 25.488598 2.781197 0.000000 0.000000 0.000000 9.595075 53.564673 -2.215720 -81.718384 -7.651589 -34.870469 56.638162 -6.911776 0.797724 18.331377 -23.975639 -0.192795 -6.376525 4.165817 3.879419 0.000000 0.000000 0.000000 11.614438 52.096599 -3.601970 43.402379 -30.650716 9.875793 33.525079 31.923218 -1.191909 -53.972247 -15.299798 -7.411528 -26.163962 8.322190 -13.700146 0.000000 0.000000 0.000000 16.484865 58.082167 -9.047120 9.014087 14.863987 -5.617046 6.294302 11.619893 1.079998 0.382572 0.057145 -0.031388 0.000000 0.000000 0.000000 5.083473 13.730378 0.031223 16.457734 -21.298640 23.893815 166.089273 -74.143671 -151.979769 0.000000 0.000000 0.000000 5.467084 12.034242 -0.999564 1.265312 -3.408418 6.880830 -3.045611 -2.318002 -1.924387 -35.465330 10.796672 -31.950327 69.311920 -17.078453 36.330227 0.000000 0.000000 0.000000 8.275263 13.205121 -1.218081 -4.669119 -8.181871 -19.203423 -5.781534 2.746011 5.677470 -36.421092 0.885570 1.536989 -21.283810 22.277741 4.975493 0.000000 0.000000 0.000000 
-0.891019 25.449253 2.875582 0.000000 0.000000 0.000000 9.718714 50.874698 -2.291533 -81.263480 -8.542358 -33.553434 57.573297 -7.204081 -0.111331 16.770930 -22.919414 -0.808607 -6.225487 3.765655 4.811392 0.000000 0.000000 0.000000 11.863553 49.279221 -3.599636 41.269748 -30.916896 7.860241 34.330737 32.880230 -1.731864 -53.477147 -15.261204 -6.949271 -26.181440 8.098303 -12.801615 0.000000 0.000000 0.000000 16.163393 55.275351 -8.645032 8.924463 14.241750 -5.574276 6.544158 12.182167 1.262081 0.249177 0.089040 -0.116931 0.000000 0.000000 0.000000 5.195521 14.193733 0.322821 16.404943 -20.407299 23.414431 178.330666 -72.483818 -139.126705 0.000000 0.000000 0.000000 5.255020 12.654263 -0.943769 1.334110 -1.883938 6.162852 -2.983499 -3.055679 -1.265419 -30.220671 16.713169 -29.160089 71.923033 -20.050604 39.785746 0.000000 0.000000 0.000000 8.233446 13.907104 -0.927909 -5.398255 -6.623226 -18.722257 -7.010531 3.524898 4.850796 -42.071657 0.031671 2.687538 -23.203001 23.125639 8.622710 0.000000 0.000000 0.000000 
-0.660421 25.475262 2.923986 0.000000 0.000000 0.000000 9.630306 47.315005 -2.083413 -80.296790 -8.982202 -31.530312 58.542371 -7.533968 -1.003621 15.646312 -21.961862 -0.652604 -5.741435 3.202005 6.210422 0.000000 0.000000 0.000000 11.775267 45.819655 -3.270762 38.295914 -30.804734 5.163595 35.573708 34.015039 -2.530323 -51.919348 -16.001511 -5.323933 -27.731797 7.776282 -11.794112 0.000000 0.000000 0.000000 15.281273 51.758535 -7.806341 8.717531 13.544648 -5.052152 6.749668 12.626673 1.254199 0.101706 0.197569 -0.138435 0.000000 0.000000 0.000000 5.446374 14.590613 0.444292 16.059086 -19.451691 22.727958 -169.654782 -71.839431 -127.238925 0.000000 0.000000 0.000000 5.030280 13.229733 -1.018973 1.332126 -0.059733 5.692463 -3.009529 -4.295496 -0.671120 -24.981897 24.137982 -26.845249 74.143247 -22.780802 43.330993 0.000000 0.000000 0.000000 8.315337 14.553798 -0.778927 -6.158765 -5.248901 -17.624074 -7.634304 4.953431 3.803954 -48.586144 0.975065 4.810334 -24.357423 21.789739 11.144208 0.000000 0.000000 0.000000 
-0.444936 25.558176 2.936676 0.000000 0.000000 0.000000 9.443250 42.864242 -1.567741 -78.781000 -8.982065 -29.004231 58.777138 -7.434619 -1.900849 14.440210 -20.591448 0.819471 -4.179470 2.670122 7.342586 0.000000 0.000000 0.000000 11.359429 41.653543 -2.591636 34.667851 -30.177890 1.967906 37.550744 34.936551 -3.572271 -50.118658 -17.090974 -3.590020 -29.040872 7.193393 -10.593237 0.000000 0.000000 0.000000 14.121002 47.732497 -6.624847 8.504479 12.775591 -4.126643 6.875220 12.749140 1.028443 0.017093 0.284547 -0.139897 0.000000 0.000000 0.000000 5.686572 14.730261 0.366667 15.713923 -18.094442 21.737077 -154.201465 -71.914966 -112.343901 0.000000 0.000000 0.000000 4.850531 13.532772 -1.226557 1.301142 2.181292 5.481673 -2.968917 -5.742013 -0.248441 -19.063980 32.408291 -26.079763 75.828828 -25.327335 46.903790 0.000000 0.000000 0.000000 8.477481 14.872583 -0.857578 -6.823474 -4.304179 -15.798028 -7.599356 6.238693 3.240133 -54.447218 3.964512 8.198146 -24.701196 19.841787 12.585088 0.000000 0.000000 0.000000 
-0.266217 25.738970 2.891981 0.000000 0.000000 0.000000 9.206498 37.677980 -0.784165 -76.868732 -8.717904 -26.243581 58.239807 -6.909728 -2.685473 12.909499 -18.665237 2.907091 -1.787933 2.290879 7.821289 0.000000 0.000000 0.000000 10.661556 36.846692 -1.605172 30.527623 -29.053958 -1.580016 39.789161 35.293486 -4.673744 -49.165621 -18.067529 -2.748415 -28.337886 6.403389 -9.235673 0.000000 0.000000 0.000000 12.916265 43.129691 -5.246612 8.362476 11.927691 -2.958459 6.874967 12.449917 0.651330 -0.039291 0.305548 -0.093024 0.000000 0.000000 0.000000 5.819958 14.502643 0.117506 15.457681 -16.156073 20.258679 -133.224042 -71.427994 -92.160828 0.000000 0.000000 0.000000 4.779823 13.405324 -1.557648 1.287079 4.733780 5.402263 -2.676813 -6.841466 -0.258843 -11.694316 40.654840 -27.853592 77.026953 -27.525514 50.265695 0.000000 0.000000 0.000000 8.632738 14.710225 -1.114754 -7.347778 -4.008672 -13.358653 -7.126338 6.522749 3.597823 -58.680464 8.689565 13.061268 -24.818515 19.640620 13.534385 0.000000 0.000000 0.000000 
-0.132347 26.008034 2.823063 0.000000 0.000000 0.000000 8.983570 31.888009 0.160960 -74.420819 -8.529895 -23.320144 56.747240 -6.064706 -3.392149 11.085530 -16.213879 4.728633 0.092834 1.987626 7.881089 0.000000 0.000000 0.000000 9.921570 31.526493 -0.466608 25.907387 -27.453016 -5.561995 42.452167 35.067967 -5.814530 -48.608547 -18.949332 -2.292368 -26.068097 5.768203 -7.897224 0.000000 0.000000 0.000000 11.800668 37.908373 -3.793321 8.364237 11.002911 -1.728381 6.765607 11.724215 0.230259 -0.049876 0.211111 -0.021604 0.000000 0.000000 0.000000 5.820128 13.905866 -0.204418 15.342217 -13.569368 18.291014 -108.538318 -68.516886 -68.307759 0.000000 0.000000 0.000000 4.830444 12.795810 -1.935027 1.325314 7.200402 5.460408 -2.182614 -7.160815 -0.901821 -2.733830 47.715623 -32.725328 77.660105 -29.409360 53.052852 0.000000 0.000000 0.000000 8.697986 14.050442 -1.450148 -7.622660 -4.200584 -10.348163 -6.411984 6.083145 4.747516 -61.472679 14.589752 19.450383 -25.263241 23.051154 14.604739 0.000000 0.000000 0.000000 
-0.075561 26.348232 2.758116 0.000000 0.000000 0.000000 8.701940 25.668561 1.175194 -71.638965 -8.545741 -20.046726 54.987903 -5.106125 -3.962492 9.381083 -13.440778 5.808908 0.833864 1.705522 7.580237 0.000000 0.000000 0.000000 9.170180 25.574311 0.717169 20.620981 -25.470701 -9.979842 45.355786 34.557328 -6.976863 -46.743018 -20.207748 -0.502019 -23.905802 5.655888 -7.049360 0.000000 0.000000 0.000000 10.863535 32.119774 -2.404408 8.552660 10.077564 -0.632466 6.567317 10.704862 -0.139724 -0.028784 0.022781 0.001602 0.000000 0.000000 0.000000 5.705229 13.035897 -0.513251 15.258916 -10.566231 15.833985 -86.716007 -61.886124 -47.161579 0.000000 0.000000 0.000000 4.972653 11.816423 -2.270769 1.413682 9.286363 5.629527 -1.519013 -6.537385 -2.117411 6.914640 52.605984 -40.176221 77.934890 -31.165228 55.299063 0.000000 0.000000 0.000000 8.626372 13.020873 -1.758133 -7.588620 -4.640699 -7.024734 -5.734652 4.899403 6.174426 -63.292740 20.990701 27.051439 -26.216491 29.872198 15.920486 0.000000 0.000000 0.000000 
-0.089351 26.720488 2.669855 0.000000 0.000000 0.000000 8.345586 18.928959 2.165967 -68.667963 -8.728526 -16.337874 53.908836 -4.131784 -4.385725 7.825912 -10.454350 6.251124 1.070018 1.460074 6.929909 0.000000 0.000000 0.000000 8.482000 19.024763 1.820797 14.669653 -23.243866 -14.653534 47.625523 34.229469 -8.045941 -42.596775 -22.019241 4.678688 -23.209276 6.256995 -7.158290 0.000000 0.000000 0.000000 9.961543 25.692762 -1.075577 8.903554 9.224989 0.198372 6.310520 9.565133 -0.369223 -0.005365 -0.137217 0.039086 0.000000 0.000000 0.000000 5.535860 12.067481 -0.739869 15.079569 -7.365371 12.963206 -70.852708 -52.021135 -31.754328 0.000000 0.000000 0.000000 5.164157 10.673838 -2.464540 1.495404 10.812060 5.746243 -1.186748 -5.312346 -3.815239 14.740081 54.984683 -48.022500 78.517635 -33.288389 57.652384 0.000000 0.000000 0.000000 8.495421 11.859859 -1.936296 -7.250712 -4.924394 -3.590798 -5.100271 3.843259 7.562057 -64.390898 27.425752 35.114569 -27.302870 38.265786 17.042242 0.000000 0.000000 0.000000 
-0.165373 27.060810 2.562223 0.000000 0.000000 0.000000 7.877136 11.615549 3.103792 -65.396971 -8.913063 -12.120696 53.657720 -3.301671 -4.699467 5.998600 -7.404019 6.282929 1.537534 1.285342 6.036342 0.000000 0.000000 0.000000 7.831516 11.838884 2.814908 8.456782 -20.961767 -19.195444 49.038190 34.088648 -9.016855 -36.988907 -23.677185 12.943580 -23.478857 7.555884 -8.302142 0.000000 0.000000 0.000000 9.032217 18.618377 0.212269 9.375802 8.494958 0.646403 6.060121 8.435705 -0.439231 0.060799 -0.240429 0.069287 0.000000 0.000000 0.000000 5.389153 11.120747 -0.855617 14.644023 -4.205680 9.899762 -59.348135 -40.280989 -20.579396 0.000000 0.000000 0.000000 5.347828 9.546460 -2.450384 1.543492 11.576293 5.836983 -0.964910 -3.738712 -6.020055 17.778699 55.138816 -53.281889 80.433476 -36.422308 61.175067 0.000000 0.000000 0.000000 8.360158 10.747549 -1.945359 -6.638201 -4.731387 -0.058550 -4.785227 2.620968 8.465403 -64.542146 33.586499 42.863050 -27.274819 45.503369 16.768398 0.000000 0.000000 0.000000 
-0.270515 27.325085 2.406050 0.000000 0.000000 0.000000 7.263087 3.784668 3.976473 -61.775345 -8.814904 -7.479174 53.869535 -2.791086 -4.948459 3.302763 -4.605312 5.967261 2.150290 1.174307 5.170536 0.000000 0.000000 0.000000 7.144666 4.134752 3.695239 2.441203 -19.159147 -23.226130 49.760069 33.478575 -9.659441 -31.928983 -24.672269 21.472933 -21.950804 9.278279 -10.284977 0.000000 0.000000 0.000000 8.040865 11.109940 1.413706 9.840893 7.883914 0.698198 5.813681 7.410875 -0.377260 0.140415 -0.262002 0.097683 0.000000 0.000000 0.000000 5.290317 10.249035 -0.880907 13.837307 -1.331949 6.867556 -50.280769 -28.267966 -12.116924 0.000000 0.000000 0.000000 5.446396 8.534873 -2.263144 1.535859 11.516804 5.634203 -0.745494 -2.078054 -7.974180 15.225176 53.282248 -54.607356 84.112455 -40.443947 66.180708 0.000000 0.000000 0.000000 8.280673 9.757544 -1.799057 -5.866885 -4.112739 3.292739 -4.980033 1.664213 8.936912 -62.651085 39.413535 48.624608 -24.900537 49.890062 13.941324 0.000000 0.000000 0.000000 
